<svg xmlns="http://www.w3.org/2000/svg" viewBox="0 0 787 148" width="787" height="148">
    <defs />
    <g transform="matrix(1,0,0,1,-158.573353931,-198.560309366)">
        <g>
            <g>
                <path id="container"
                    d="M616.857388,197.917842C616.857388,197.917842 229.744053,197.917842 229.744053,197.917842 C225.751469,197.917842 221.500625,199.687649 220.260118,201.866407 C220.260118,201.866407 159.184793,309.13576 159.184793,309.13576 C157.944286,311.314518 160.179801,313.084325 164.172385,313.084325 C164.172385,313.084325 551.28572,313.084325 551.28572,313.084325 C555.278304,313.084325 559.529147,311.314518 560.769654,309.13576 C560.769654,309.13576 592.835513,252.817043 592.835513,252.817043 C592.835513,252.817043 908.224589,252.817043 908.224589,252.817043 C912.717194,252.817043 917.007005,251.692168 917.795461,250.307366 C917.795461,250.307366 946.195258,200.42752 946.195258,200.42752 C946.983714,199.042718 943.974832,197.917842 939.482227,197.917842 C939.482227,197.917842 616.857388,197.917842 616.857388,197.917842 L 616.857388,197.917842 Z"
                    transform="matrix(1,0,0,1,-0.268933313,0.642467116)" fill="#fefefe"
                    stroke="#000000" stroke-width="2" />
            </g>
            <g>
                <path id="profile-img"
                    d="M295.602736,215.220176C296.966062,212.825705 299.946188,210.880674 302.251608,210.880674 L 467.809413,210.880674 C470.114833,210.880674 470.880097,212.825705 469.51677,215.220176 L 420.410471,301.467788 C419.047145,303.862259 416.067019,305.80729 413.761599,305.80729 L 248.203795,305.80729 C245.898375,305.80729 245.133111,303.862259 246.496437,301.467788 L 295.602736,215.220176 Z"
                    fill="#fefefe" stroke="#000000" stroke-width="2" />
            </g>
            <g>
                <path id="life"
                    d="M591.200973,212.226471C591.200973,212.226471 577.381482,212.226471 577.381482,212.226471 C577.381482,212.226471 489.228964,212.226471 489.228964,212.226471 C487.808986,212.226471 485.983761,213.406343 485.156756,214.858848 C485.156756,214.858848 455.368484,267.177336 455.368484,267.177336 C454.54148,268.629842 455.023152,269.809713 456.443129,269.809713 C456.443129,269.809713 558.415139,269.809713 558.415139,269.809713 C559.835116,269.809713 561.660342,268.629842 562.487346,267.177336 C562.487346,267.177336 585.936047,225.993323 585.936047,225.993323 C585.936047,225.993323 908.517778,225.993323 908.517778,225.993323 C913.238057,225.993323 917.23295,225.711242 917.430668,225.363981 C917.430668,225.363981 924.55237,212.855813 924.55237,212.855813 C924.750089,212.508552 921.076409,212.226471 916.35613,212.226471 C916.35613,212.226471 591.200973,212.226471 591.200973,212.226471 L 591.200973,212.226471 Z"
                    transform="matrix(1,0,0,1,-0.268933313,0.642467116)" fill="#fefefe"
                    stroke="#000000" stroke-width="2" />
            </g>
            <g>
                <path id="cont"
                    d="M227.060233,214.135301C228.082727,212.339447 229.406802,210.880674 230.014338,210.880674 L 288.91985,210.880674 C289.527386,210.880674 289.190315,212.339447 288.16782,214.135301 L 237.826142,302.552663 C236.803648,304.348517 235.479573,305.80729 234.872037,305.80729 L 175.966525,305.80729 C175.358989,305.80729 175.69606,304.348517 176.718555,302.552663 L 227.060233,214.135301 Z"
                    transform="matrix(1,0,0,1,0,0)" fill="#ffffff" stroke="#000000" stroke-width="2" />
            </g>
            <g>
                <path id="battery1"
                    d="M230.374341,224.759622C231.151108,223.395351 231.899953,222.287154 232.045068,222.287154 L 246.115137,222.287154 C246.260252,222.287154 245.747161,223.395351 244.970395,224.759622 L 206.726932,291.928342 C205.950166,293.292612 205.201321,294.40081 205.056206,294.40081 L 190.986136,294.40081 C190.841021,294.40081 191.354112,293.292612 192.130879,291.928342 L 230.374341,224.759622 Z"
                    transform="matrix(1,0,0,1,0,0)" fill="#fefefe" stroke="#000000" stroke-width="2" />
            </g>
            <g>
                <path id="battery2"
                    d="M257.498331,224.759622C258.275098,223.395351 259.023943,222.287154 259.169058,222.287154 L 273.239127,222.287154 C273.384242,222.287154 272.871151,223.395351 272.094384,224.759622 L 233.850922,291.928342 C233.074156,293.292612 232.32531,294.40081 232.180195,294.40081 L 218.110126,294.40081 C217.965011,294.40081 218.478102,293.292612 219.254869,291.928342 L 257.498331,224.759622 Z"
                    transform="matrix(1,0,0,1,0,0)" fill="#fefefe" stroke="#000000" stroke-width="2" />
            </g>
            <g>
                <path id="xp-points"
                    d="M452.293566,276.31427C452.642666,275.70113 453.787161,275.203076 454.847015,275.203076 L 557.608499,275.203076 C558.668353,275.203076 559.2457,275.70113 558.8966,276.31427 L 541.708963,306.501694 C541.359863,307.114833 540.215368,307.612887 539.155514,307.612887 L 436.39403,307.612887 C435.334176,307.612887 434.756829,307.114833 435.105929,306.501694 L 452.293566,276.31427 Z"
                    transform="matrix(1,0,0,1,0,0)" fill="#fefefe" stroke="#000000" stroke-width="2" />
            </g>
            <g>
                <path id="energy"
                    d="M600.094223,236.991625C600.241828,236.73238 603.71302,236.521795 607.8387,236.521795 L 904.11373,236.521795 C908.239409,236.521795 911.470803,236.73238 911.323198,236.991625 L 906.00655,246.329494 C905.858945,246.588739 902.387753,246.799324 898.262073,246.799324 L 601.987043,246.799324 C597.861363,246.799324 594.62997,246.588739 594.777575,246.329494 L 600.094223,236.991625 Z"
                    transform="matrix(1,0,0,1,0,0)" fill="#fefefe" stroke="#000000" stroke-width="2" />
            </g>
            <g>
                <path id="first-level"
                    d="M188.633447,318.78001C188.633447,318.78001 193.960332,331.000453 193.960332,331.000453 C193.960332,331.000453 207.956565,341.753964 207.956565,341.753964 C207.956565,341.753964 190.327257,340.893717 190.327257,340.893717 C190.327257,340.893717 178.35756,346.762386 178.35756,346.762386 C178.35756,346.762386 173.030674,334.541943 173.030674,334.541943 C173.030674,334.541943 159.034441,323.788433 159.034441,323.788433 C159.034441,323.788433 176.663749,324.648679 176.663749,324.648679 C176.663749,324.648679 188.633447,318.78001 188.633447,318.78001 Z"
                    transform="matrix(1,0,0,1,0,0)" fill="#fefefe" stroke="#000000" stroke-width="2" />
            </g>
            <g>
                <path id="second-level"
                    d="M231.073444,318.78001C231.073444,318.78001 236.400329,331.000453 236.400329,331.000453 C236.400329,331.000453 250.396562,341.753964 250.396562,341.753964 C250.396562,341.753964 232.767254,340.893717 232.767254,340.893717 C232.767254,340.893717 220.797557,346.762386 220.797557,346.762386 C220.797557,346.762386 215.470672,334.541943 215.470672,334.541943 C215.470672,334.541943 201.474439,323.788433 201.474439,323.788433 C201.474439,323.788433 219.103747,324.648679 219.103747,324.648679 C219.103747,324.648679 231.073444,318.78001 231.073444,318.78001 Z"
                    transform="matrix(1,0,0,1,0,0)" fill="#fefefe" stroke="#000000" stroke-width="2" />
            </g>
            <g>
                <path id="third-level"
                    d="M274.305847,318.78001C274.305847,318.78001 279.632732,331.000453 279.632732,331.000453 C279.632732,331.000453 293.628965,341.753964 293.628965,341.753964 C293.628965,341.753964 275.999657,340.893717 275.999657,340.893717 C275.999657,340.893717 264.02996,346.762386 264.02996,346.762386 C264.02996,346.762386 258.703075,334.541943 258.703075,334.541943 C258.703075,334.541943 244.706841,323.788433 244.706841,323.788433 C244.706841,323.788433 262.336149,324.648679 262.336149,324.648679 C262.336149,324.648679 274.305847,318.78001 274.305847,318.78001 Z"
                    transform="matrix(1,0,0,1,0,0)" fill="#fefefe" stroke="#000000" stroke-width="2" />
            </g>
            <g>
                <path id="fourth-level"
                    d="M321.367798,318.78001C321.367798,318.78001 326.694683,331.000453 326.694683,331.000453 C326.694683,331.000453 340.690916,341.753964 340.690916,341.753964 C340.690916,341.753964 323.061608,340.893717 323.061608,340.893717 C323.061608,340.893717 311.09191,346.762386 311.09191,346.762386 C311.09191,346.762386 305.765025,334.541943 305.765025,334.541943 C305.765025,334.541943 291.768792,323.788433 291.768792,323.788433 C291.768792,323.788433 309.3981,324.648679 309.3981,324.648679 C309.3981,324.648679 321.367798,318.78001 321.367798,318.78001 Z"
                    transform="matrix(1,0,0,1,0,0)" fill="#fefefe" stroke="#000000" stroke-width="2" />
            </g>
            <g>
                <path id="fifth-level"
                    d="M366.613211,318.78001C366.613211,318.78001 371.940096,331.000453 371.940096,331.000453 C371.940096,331.000453 385.936329,341.753964 385.936329,341.753964 C385.936329,341.753964 368.307021,340.893717 368.307021,340.893717 C368.307021,340.893717 356.337324,346.762386 356.337324,346.762386 C356.337324,346.762386 351.010439,334.541943 351.010439,334.541943 C351.010439,334.541943 337.014206,323.788433 337.014206,323.788433 C337.014206,323.788433 354.643514,324.648679 354.643514,324.648679 C354.643514,324.648679 366.613211,318.78001 366.613211,318.78001 Z"
                    transform="matrix(1,0,0,1,0,0)" fill="#fefefe" stroke="#000000" stroke-width="2" />
            </g>
            <g>
                <path id="sixth-level"
                    d="M407.312106,318.78001C407.312106,318.78001 412.638991,331.000453 412.638991,331.000453 C412.638991,331.000453 426.635224,341.753964 426.635224,341.753964 C426.635224,341.753964 409.005916,340.893717 409.005916,340.893717 C409.005916,340.893717 397.036218,346.762386 397.036218,346.762386 C397.036218,346.762386 391.709333,334.541943 391.709333,334.541943 C391.709333,334.541943 377.7131,323.788433 377.7131,323.788433 C377.7131,323.788433 395.342408,324.648679 395.342408,324.648679 C395.342408,324.648679 407.312106,318.78001 407.312106,318.78001 Z"
                    transform="matrix(1,0,0,1,0,0)" fill="#fefefe" stroke="#000000" stroke-width="2" />
            </g>
            <g>
                <path id="seventh-level"
                    d="M454.374056,318.78001C454.374056,318.78001 459.700941,331.000453 459.700941,331.000453 C459.700941,331.000453 473.697174,341.753964 473.697174,341.753964 C473.697174,341.753964 456.067867,340.893717 456.067867,340.893717 C456.067867,340.893717 444.098169,346.762386 444.098169,346.762386 C444.098169,346.762386 438.771284,334.541943 438.771284,334.541943 C438.771284,334.541943 424.775051,323.788433 424.775051,323.788433 C424.775051,323.788433 442.404359,324.648679 442.404359,324.648679 C442.404359,324.648679 454.374056,318.78001 454.374056,318.78001 Z"
                    transform="matrix(1,0,0,1,0,0)" fill="#fefefe" stroke="#000000" stroke-width="2" />
            </g>
            <g>
                <path id="eight-level"
                    d="M498.394357,318.78001C498.394357,318.78001 503.721242,331.000453 503.721242,331.000453 C503.721242,331.000453 517.717475,341.753964 517.717475,341.753964 C517.717475,341.753964 500.088167,340.893717 500.088167,340.893717 C500.088167,340.893717 488.11847,346.762386 488.11847,346.762386 C488.11847,346.762386 482.791584,334.541943 482.791584,334.541943 C482.791584,334.541943 468.795351,323.788433 468.795351,323.788433 C468.795351,323.788433 486.424659,324.648679 486.424659,324.648679 C486.424659,324.648679 498.394357,318.78001 498.394357,318.78001 Z"
                    transform="matrix(1,0,0,1,0,0)" fill="#fefefe" stroke="#000000" stroke-width="2" />
            </g>
        </g>
    </g>
</svg>